<?xml version="1.0" standalone="no"?>
<!DOCTYPE svg PUBLIC "-//W3C//DTD SVG 20010904//EN"
 "http://www.w3.org/TR/2001/REC-SVG-20010904/DTD/svg10.dtd">
<svg version="1.0" xmlns="http://www.w3.org/2000/svg"
 width="800.000000pt" height="400.000000pt" viewBox="0 0 800.000000 400.000000"
 preserveAspectRatio="xMidYMid meet">
<metadata>
Created by potrace 1.15, written by Peter Selinger 2001-2017
</metadata>
<g transform="translate(0.000000,400.000000) scale(0.100000,-0.100000)"
fill="#3488EC" stroke="none">
<path d="M7950 830 c-143 -79 -540 -156 -905 -175 -60 -3 -130 -8 -155 -10
-25 -2 -205 -7 -400 -10 -384 -7 -461 -13 -616 -50 -234 -55 -501 -190 -719
-363 -46 -37 -61 -42 -190 -67 -141 -28 -328 -83 -440 -129 l-60 -25 1768 -1
1767 0 0 425 c0 234 -3 425 -7 425 -5 -1 -24 -10 -43 -20z"/>
</g>
</svg>
